<svg width="134" height="153" viewBox="0 0 134 153" fill="none" xmlns="http://www.w3.org/2000/svg">
<path d="M24.7223 135.467L0 123.912C0 123.912 52.2433 101.999 54.5755 96.8191C56.9078 91.6395 53.1762 48.2103 55.9749 44.6244C58.7737 41.0385 109.151 17.531 109.151 17.531L133.873 29.484C133.873 29.484 82.0965 53.3899 79.2978 56.179C76.499 58.968 81.1636 103.194 78.3649 107.975C75.5661 112.756 24.7223 135.467 24.7223 135.467Z" fill="black"/>
<path d="M120.376 73.3135L97.0529 62.9542C95.2343 62.6223 98.4522 107.18 94.7206 114.352C90.989 121.524 42.4772 140.25 43.8767 141.047C45.2761 141.844 69.0654 153 69.0654 153C69.0654 153 114.778 132.68 118.51 123.516C122.242 114.352 120.376 73.3135 120.376 73.3135Z" fill="black"/>
<path d="M12.5944 79.6865L35.9172 90.0458C37.7358 90.3777 34.5179 45.8196 38.2495 38.6479C41.9811 31.4763 90.4929 12.7497 89.0934 11.953C87.694 11.1562 63.9047 -2.28882e-05 63.9047 -2.28882e-05C63.9047 -2.28882e-05 18.1918 20.3202 14.4601 29.4841C10.7285 38.6481 12.5944 79.6865 12.5944 79.6865Z" fill="black"/>
</svg>
